<svg width="48.978027" height="56.000000" viewBox="0 0 48.978 56" fill="none" xmlns="http://www.w3.org/2000/svg" xmlns:xlink="http://www.w3.org/1999/xlink">
	<desc>
			Created with Pixso.
	</desc>
	<defs/>
	<path id="Vector" d="M29.68 39.72C29.96 39.64 32.19 38.98 34.1 40.77C34.82 41.44 35.26 42.25 35.54 42.95C35.82 43.68 35.26 44.46 34.48 44.46L26.19 44.46C25.43 44.46 24.89 43.72 25.13 42.99L25.81 40.86C27.1 40.48 28.39 40.1 29.68 39.72Z" fill="#F7BC23" fill-opacity="1.000000" fill-rule="nonzero"/>
	<g opacity="0.090000">
		<path id="Vector" d="M32.98 42.88C32.82 42.32 33.09 41.72 33.64 41.51C33.94 41.39 34.25 41.26 34.47 41.15C34.35 41.02 34.23 40.89 34.09 40.76C32.19 38.97 29.97 39.63 29.69 39.72C28.41 40.1 27.13 40.47 25.86 40.85C25.84 40.85 25.83 40.85 25.81 40.86L25.13 43C24.89 43.71 25.43 44.45 26.19 44.45L32.07 44.45C33.2 44.45 33.19 43.6 32.98 42.88Z" fill="#000000" fill-opacity="1.000000" fill-rule="nonzero"/>
	</g>
	<path id="Vector" d="M30.62 44.45L22.34 44.45C21.58 44.45 21.04 43.72 21.28 42.99L21.48 42.35L21.96 40.87C23.26 40.49 24.54 40.11 25.83 39.73C26.11 39.64 28.33 38.98 30.23 40.77C30.71 41.22 31.07 41.73 31.32 42.22C31.47 42.47 31.58 42.72 31.67 42.96C31.98 43.77 31.49 44.45 30.62 44.45Z" fill="#FFD731" fill-opacity="1.000000" fill-rule="nonzero"/>
	<g opacity="0.090000">
		<path id="Vector" d="M30.23 40.77C28.33 38.98 26.11 39.64 25.83 39.73C24.73 40.05 23.63 40.38 22.52 40.7C22.52 40.7 22.52 40.7 22.52 40.7C22.34 40.75 22.15 40.81 21.96 40.87L21.48 42.35L21.28 42.99C21.04 43.72 21.58 44.45 22.34 44.45L23.82 44.45C23.01 44.27 22.84 43.59 22.84 43.09C22.84 42.79 23.1 42.55 23.4 42.58C24.11 42.65 25.41 42.75 26.46 42.75C28.21 42.75 29.83 42.58 31.32 42.22C31.07 41.73 30.71 41.22 30.23 40.77Z" fill="#000000" fill-opacity="1.000000" fill-rule="nonzero"/>
	</g>
	<path id="Vector" d="M13.14 38.59C5.94 47.77 -0.55 53.96 0.46 55.35C2.96 58.78 18.14 47.96 24.11 37.88C21.1 38.17 16.15 38.3 13.14 38.59Z" fill="#F72121" fill-opacity="1.000000" fill-rule="nonzero"/>
	<g opacity="0.090000">
		<path id="Vector" d="M22.72 37.98C22.45 38.38 22.14 38.76 21.84 39.15C21.4 39.34 20.96 39.51 20.54 39.63C19.59 39.9 18.71 39.99 17.94 39.89C16.84 39.74 16.16 39.13 15.83 38.39C14.85 38.44 13.93 38.51 13.14 38.59C11.46 40.74 9.81 42.72 8.3 44.53C10.38 44.49 13.14 42.25 13.64 41.66C13.47 42.63 13.36 43.84 14.2 44.41C14.33 44.52 14.87 44.66 15.49 44.72C15.98 44.77 16.16 45.36 15.81 45.69C9.79 51.21 3.05 55.08 0.85 53.69C0.39 54.47 0.23 55.03 0.46 55.34C2.46 58.1 12.7 51.64 19.72 43.75C21.4 41.87 22.9 39.9 24.06 37.96C24.08 37.93 24.09 37.91 24.11 37.87C23.69 37.92 23.22 37.95 22.72 37.98Z" fill="#000000" fill-opacity="1.000000" fill-rule="nonzero"/>
	</g>
	<path id="Vector" d="M13.18 37.13C3.91 45.46 -1.13 46.78 0.22 48.25C2.42 50.64 15.81 45.51 22.58 37.48C20.44 37.4 18.29 37.32 16.15 37.24C15.16 37.2 14.17 37.16 13.18 37.13Z" fill="#20ABD1" fill-opacity="1.000000" fill-rule="nonzero"/>
	<g opacity="0.090000">
		<path id="Vector" d="M22.58 37.48C15.81 45.51 2.43 50.64 0.21 48.24C-0.2 47.8 -0.01 47.36 0.71 46.75C3.73 48.08 14.3 43.95 20.94 37.41C21.49 37.44 22.03 37.46 22.58 37.48Z" fill="#000000" fill-opacity="1.000000" fill-rule="nonzero"/>
	</g>
	<path id="Vector" d="M46.17 15.14C45.14 16.42 42.83 17.75 40.64 17.93C37.49 16.85 34.78 14.3 35.27 12.2C35.71 10.32 37.78 9.44 38.33 9.24C40.18 8.55 42.76 8.77 44.31 10.57C45.68 12.18 46.22 14.72 46.17 15.14Z" fill="#F7BC23" fill-opacity="1.000000" fill-rule="nonzero"/>
	<g opacity="0.090000">
		<path id="Vector" d="M46.17 15.15C45.82 15.59 45.3 16.05 44.67 16.46C43.6 15.15 41.85 13.36 38.44 12.13C38.11 12.02 39.09 10.21 40.41 8.87C41.81 8.87 43.27 9.39 44.3 10.58C45.68 12.18 46.22 14.72 46.17 15.15Z" fill="#000000" fill-opacity="1.000000" fill-rule="nonzero"/>
	</g>
	<path id="Vector" d="M47.48 17.1C46.36 17.24 45.54 13.25 39.48 11.09C38.98 10.91 41.66 6.55 43.88 6.39C51.21 9.64 48.88 16.94 47.48 17.1Z" fill="#FFD731" fill-opacity="1.000000" fill-rule="nonzero"/>
	<path id="Vector" d="M31.24 1.18C37.24 -2.04 42.18 2.03 43.4 4.68C43.77 5.5 43.88 6.39 43.88 6.39C42.2 7.64 38.16 12.55 40.64 17.93C41.43 19.99 43.58 28.34 39.46 35.1C32.64 44.97 19.41 40.13 16.26 39.98C24.34 29.25 19.87 29.41 23.57 18.23C24.94 14.08 25.23 4.41 31.24 1.18Z" fill="#F72121" fill-opacity="1.000000" fill-rule="nonzero"/>
	<path id="Vector" d="M40.64 17.93C38.73 13.8 40.68 9.93 42.45 7.81C42.13 3.09 36.31 1.68 33.99 4.72C31.64 7.81 33.32 15.35 40.64 17.93Z" fill="#F4F4F4" fill-opacity="1.000000" fill-rule="nonzero"/>
	<path id="Vector" d="M39.29 6.92C39.29 7.65 38.7 8.25 37.96 8.25C37.23 8.25 36.64 7.65 36.64 6.92C36.64 6.19 37.23 5.6 37.96 5.6C38.7 5.6 39.29 6.19 39.29 6.92Z" fill="#1D1E1E" fill-opacity="1.000000" fill-rule="evenodd"/>
	<g opacity="0.090000">
		<path id="Vector" d="M43.88 6.39C43.88 6.39 43.77 5.5 43.4 4.68C42.4 2.52 38.93 -0.6 34.43 0.1C37.68 0.59 40.08 2.93 40.88 4.68C41.27 5.55 41.07 6.56 40.41 7.25C38.56 9.21 36.03 13.41 38.12 17.93C38.7 19.43 39.99 24.3 39.04 29.44C38.4 32.9 36 35.87 32.68 37.04C32.53 37.09 32.39 37.14 32.24 37.19C31.23 37.51 30.38 36.38 30.96 35.5C32.69 32.88 34.06 29.8 34.71 26.32C34.95 25.02 34.21 23.72 32.98 23.23L23.97 19.62C23.7 19.59 23.41 19.6 23.12 19.65C20.44 28.78 23.51 29.66 17.62 38.1C17.21 38.69 16.77 39.3 16.26 39.98C19.42 40.13 32.65 44.97 39.47 35.11C41.69 31.46 42.08 27.33 41.85 24C41.85 24 41.85 23.98 41.85 23.97C41.65 21.13 41 18.87 40.64 17.93C38.16 12.55 42.2 7.64 43.88 6.39Z" fill="#000000" fill-opacity="1.000000" fill-rule="nonzero"/>
	</g>
	<path id="Vector" d="M23.97 16.73C18.01 16.01 6.64 37.78 8.12 40.71C9.7 43.85 14.72 39.84 15.42 39.03C15.2 40.25 15.08 41.88 16.88 42.12C22.09 42.81 33.81 34.47 35.02 21.15L23.97 16.73Z" fill="#F72121" fill-opacity="1.000000" fill-rule="nonzero"/>
	<path id="Vector" d="M8.12 40.71C9.7 43.85 14.72 39.84 15.41 39.02C15.2 40.25 15.08 41.88 16.88 42.12C21.76 42.77 32.37 35.48 34.67 23.58C30.45 29.82 24.33 33.31 21.01 32.34C19.54 31.9 19.08 30.96 19.29 29.75C18.18 31.67 12.12 33.08 12 29.54C9.28 34.56 7.47 39.44 8.12 40.71Z" fill="#63E763" fill-opacity="1.000000" fill-rule="nonzero"/>
	<path id="Vector" d="M8.12 40.71C9.7 43.85 14.72 39.84 15.41 39.02C15.2 40.25 15.08 41.88 16.88 42.12C21.4 42.72 30.84 36.5 34.04 26.13C29.91 33.62 23.49 37.76 19.71 37.26C17.91 37.01 17.22 35.52 17.43 34.29C16.09 35.75 9.62 37.99 10.76 31.96C8.76 36.05 7.58 39.65 8.12 40.71Z" fill="#30C3E5" fill-opacity="1.000000" fill-rule="nonzero"/>
	<g opacity="0.090000">
		<path id="Vector" d="M29.19 35.02C25.1 39.89 19.9 42.52 16.89 42.12C15.08 41.88 15.2 40.25 15.42 39.03C14.73 39.83 9.71 43.85 8.12 40.72C6.87 38.25 14.68 22.53 20.74 17.96C15.49 24.32 10.3 35.46 11.33 37.5C12.42 39.66 15.12 38.44 16.94 37.2C17.54 36.79 18.4 37.05 18.61 37.75C18.78 38.33 19.2 38.79 20.09 38.9C22.35 39.21 25.86 37.79 29.19 35.02Z" fill="#000000" fill-opacity="1.000000" fill-rule="nonzero"/>
	</g>
</svg>
