<svg width="45.716339" height="32.000000" viewBox="0 0 45.7163 32" fill="none" xmlns="http://www.w3.org/2000/svg" xmlns:xlink="http://www.w3.org/1999/xlink">
	<desc>
			Created with Pixso.
	</desc>
	<defs/>
	<path id="Vector" d="M44.76 4.99C44.23 3.03 42.69 1.48 40.71 0.95C37.15 0 22.85 0 22.85 0C22.85 0 8.56 0 4.99 0.95C3.03 1.47 1.48 3.02 0.95 4.99C0 8.56 0 16 0 16C0 16 0 23.43 0.95 27C1.47 28.96 3.02 30.51 4.99 31.04C8.56 32 22.85 32 22.85 32C22.85 32 37.15 32 40.71 31.04C42.68 30.52 44.23 28.97 44.76 27C45.71 23.43 45.71 16 45.71 16C45.71 16 45.71 8.56 44.76 4.99Z" fill="#FF0000" fill-opacity="1.000000" fill-rule="evenodd"/>
	<path id="Vector" d="M18.29 22.85L30.16 15.99L18.29 9.14L18.29 22.85Z" fill="#FFFFFF" fill-opacity="1.000000" fill-rule="evenodd"/>
</svg>
